<svg xmlns="http://www.w3.org/2000/svg" viewBox="0 0 1080 1080" xmlns:v="https://vecta.io/nano"><path d="M540.35 75.78l163.17 163.16 35.35-35.35L540.35 5.06l-8.84 8.84L505 40.42 341.83 203.58l35.36 35.36zm.04 928.44l-163.2-163.19-35.36 35.35 189.68 189.68 8.88 8.88 198.5-198.5-35.36-35.36zm-350.9-648.96L40.48 504.27l-26.52 26.52-8.84 8.84L189.49 724l35.36-35.36L75.83 539.63l149.02-149.02zM539.5 591.92v-70.7L281.54 263.07l-25.09 25.09v503l50 50V358.87L539.5 591.92zm280.67-306.98l-21.78-21.83-21.82 21.82-176.75 176.75 35.35 35.36 138.21-138.21v482.28l50-50 .01-432.24 180.76 180.76-149.01 149.01L890.5 724l184.38-184.38-254.71-254.68z" fill="#fff"/></svg>